# xmcd CD database file
#
# Track frame offsets:
#	180
#	25548
#	37244
#	50234
#	81493
#	105933
#	126202
#	146297
#	166590
#	185336
#	213297
#	232119
#	246283
#	259041
#	273002
#
# Disc length: 3653 seconds
#
# Revision: 1
# Processed by: cddbd v1.4PL0 Copyright (c) Steve Scherf et al.
# Submitted via: CDex 1.50beta10
#
DISCID=ca0e430f
DTITLE=CBC Freeform - Doodles
DYEAR=1995
DGENRE=Jazz
TTITLE0=Blues in a Minute
TTITLE1=Time After Time
TTITLE2=What is this Thing Called Love
TTITLE3=So May it Secretly Begin
TTITLE4=A Face Like Yours
TTITLE5=My Romance
TTITLE6=Doodlin
TTITLE7=Boplicity
TTITLE8=Stella By Starlight
TTITLE9=All My Tomorrows
TTITLE10=My Baby Upsets Me
TTITLE11=Caravan
TTITLE12=Some Other Time
TTITLE13=Rough Ridin
TTITLE14=Bring It Down, Bulmaro
EXTD=YEAR: 1995
EXTT0=
EXTT1=
EXTT2=
EXTT3=
EXTT4=
EXTT5=
EXTT6=
EXTT7=
EXTT8=
EXTT9=
EXTT10=
EXTT11=
EXTT12=
EXTT13=
EXTT14=
PLAYORDER=
